<?xml version="1.0" standalone="no"?>
<!DOCTYPE svg PUBLIC "-//W3C//DTD SVG 20010904//EN"
 "http://www.w3.org/TR/2001/REC-SVG-20010904/DTD/svg10.dtd">
<svg version="1.0" xmlns="http://www.w3.org/2000/svg"
 width="512.000000pt" height="512.000000pt" viewBox="0 0 512.000000 512.000000"
 preserveAspectRatio="xMidYMid meet">

<g transform="translate(0.000000,512.000000) scale(0.100000,-0.100000)"
fill="#000000" stroke="none">
<path d="M493 5090 c-55 -11 -91 -31 -130 -72 -55 -57 -73 -110 -73 -218 l0
-95 -58 -25 c-77 -33 -154 -111 -195 -197 l-32 -68 -3 -310 c-3 -303 -3 -310
18 -332 27 -30 82 -31 110 -3 19 19 20 33 20 298 0 171 4 292 11 317 15 53 59
116 98 138 l31 18 0 -113 c0 -124 16 -176 68 -232 68 -72 201 -98 289 -55 54
26 116 96 131 147 7 22 12 94 12 161 l0 121 115 0 115 0 0 -127 c0 -113 3
-134 24 -179 54 -115 181 -170 307 -132 55 16 118 73 145 132 21 45 24 66 24
179 l0 127 115 0 115 0 0 -122 c0 -149 8 -182 60 -241 54 -61 110 -87 186 -87
99 1 182 50 227 135 18 34 22 61 25 178 l4 137 114 0 114 0 0 -132 c0 -107 4
-141 19 -173 57 -126 209 -181 337 -121 106 49 144 130 144 308 l0 118 110 0
110 0 0 -100 c0 -125 13 -188 53 -247 103 -152 347 -132 428 35 19 38 24 69
29 167 l5 120 51 -50 c87 -85 84 -51 84 -864 l0 -706 -358 -358 -357 -357
-1291 0 c-1291 0 -1291 0 -1318 -21 -34 -27 -36 -79 -4 -109 22 -20 28 -20
1242 -20 l1219 0 -64 -68 c-63 -66 -65 -70 -128 -244 l-64 -178 -1093 0
c-1081 0 -1094 0 -1114 -20 -30 -30 -27 -83 6 -109 27 -21 29 -21 1085 -21
583 0 1059 -1 1059 -3 0 -2 -13 -40 -30 -85 -16 -46 -30 -101 -30 -123 0 -111
88 -199 199 -199 38 0 124 27 383 122 l333 121 155 154 c85 84 159 153 163
153 4 0 6 -269 5 -598 l-3 -597 -27 -52 c-28 -52 -63 -84 -128 -119 -34 -18
-93 -19 -1690 -19 l-1655 0 -48 24 c-26 13 -63 41 -82 63 -70 82 -65 -35 -65
1679 0 851 -3 1555 -6 1564 -4 8 -19 22 -34 30 -33 17 -84 4 -100 -25 -6 -12
-10 -578 -10 -1572 0 -1354 2 -1561 15 -1612 41 -158 175 -274 343 -297 40 -6
721 -8 1687 -7 1515 3 1623 4 1672 21 111 38 209 132 254 244 l24 58 3 690 3
690 219 221 c136 136 220 227 220 240 0 10 -9 34 -20 52 -17 27 -26 32 -57 32
-36 0 -54 -16 -453 -415 l-415 -415 -168 168 -167 167 748 748 c411 411 752
747 758 747 5 0 74 -65 153 -144 196 -196 202 -159 -73 -435 -189 -190 -216
-221 -216 -248 0 -51 57 -92 103 -74 32 13 441 429 463 471 25 48 25 162 0
210 -25 48 -392 417 -438 441 -57 29 -116 34 -184 14 -56 -16 -69 -27 -266
-223 l-208 -206 0 631 c0 368 -4 652 -10 682 -23 124 -117 245 -225 292 l-55
24 0 81 c0 101 -20 168 -65 221 -91 107 -258 116 -363 19 -48 -43 -73 -112
-79 -212 l-6 -94 -107 0 -108 0 -4 98 c-5 112 -23 158 -84 212 -52 45 -99 62
-170 62 -90 1 -166 -43 -211 -120 -24 -40 -29 -61 -33 -147 l-5 -100 -111 -3
-112 -3 -4 98 c-5 110 -22 155 -80 210 -124 119 -335 72 -404 -92 -9 -21 -14
-68 -14 -125 l0 -90 -115 0 -115 0 0 81 c0 45 -5 100 -12 121 -17 57 -88 133
-145 154 -100 39 -204 14 -276 -66 -53 -59 -67 -103 -67 -209 l0 -81 -115 0
-115 0 0 93 c0 67 -5 103 -19 132 -47 104 -167 166 -278 145z m118 -179 l29
-29 0 -277 0 -277 -29 -29 c-53 -53 -148 -29 -166 43 -3 13 -5 142 -3 287 l3
263 28 24 c41 35 99 33 138 -5z m730 0 l29 -29 0 -267 c0 -218 -3 -271 -15
-295 -18 -35 -43 -50 -85 -50 -42 0 -67 15 -85 50 -12 24 -15 77 -15 295 l0
267 29 29 c23 23 38 29 71 29 33 0 48 -6 71 -29z m726 5 l28 -24 3 -268 c3
-291 0 -314 -49 -339 -45 -24 -87 -19 -120 14 l-29 29 0 277 0 277 29 29 c39
38 97 40 138 5z m714 14 c44 -24 49 -54 49 -320 0 -207 -3 -258 -15 -285 -30
-61 -107 -74 -156 -26 l-29 29 0 275 0 275 26 31 c21 25 33 31 66 31 21 0 48
-5 59 -10z m744 -14 c13 -13 27 -39 30 -57 3 -19 5 -146 3 -282 l-3 -249 -33
-29 c-44 -40 -93 -40 -133 0 l-29 29 0 280 0 279 26 27 c36 36 104 37 139 2z
m-365 -3361 c118 -118 191 -198 185 -203 -11 -9 -236 -92 -251 -92 -5 0 -60
51 -123 114 l-114 114 48 131 c27 72 51 131 54 131 4 0 94 -88 201 -195z"/>
<path d="M526 3469 c-33 -26 -36 -79 -6 -109 20 -20 33 -20 1478 -20 l1459 0
21 23 c27 29 28 67 3 98 l-19 24 -1455 3 -1454 2 -27 -21z"/>
<path d="M526 2829 c-33 -26 -36 -79 -6 -109 20 -20 33 -20 1478 -20 l1459 0
21 23 c29 31 28 72 -3 102 l-24 25 -1449 0 -1449 0 -27 -21z"/>
<path d="M520 910 c-30 -30 -27 -83 6 -109 26 -21 35 -21 634 -21 599 0 608 0
634 21 34 27 36 77 3 107 l-23 22 -617 0 c-604 0 -617 0 -637 -20z"/>
<path d="M2057 919 c-46 -27 -41 -105 9 -128 18 -8 221 -11 705 -11 l680 0 24
25 c32 31 33 74 2 103 l-23 22 -690 0 c-463 -1 -695 -4 -707 -11z"/>
</g>
</svg>
