<svg xmlns="http://www.w3.org/2000/svg" width="512" height="512" viewBox="0 0 512 512" version="1.1"><path d="M 335.437 51 C 335.437 65.575, 335.577 71.537, 335.747 64.250 C 335.918 56.962, 335.918 45.037, 335.747 37.750 C 335.577 30.462, 335.437 36.425, 335.437 51 M 262.436 51.500 C 262.436 65.800, 262.577 71.511, 262.748 64.191 C 262.919 56.871, 262.918 45.171, 262.747 38.191 C 262.575 31.211, 262.435 37.200, 262.436 51.500 M 189.432 51 C 189.432 64.475, 189.574 69.987, 189.747 63.250 C 189.920 56.513, 189.920 45.487, 189.747 38.750 C 189.574 32.013, 189.432 37.525, 189.432 51 M 64.397 42 C 64.397 49.975, 64.553 53.237, 64.743 49.250 C 64.932 45.263, 64.932 38.737, 64.743 34.750 C 64.553 30.762, 64.397 34.025, 64.397 42 M 247.382 66.500 C 247.384 73.100, 247.546 75.670, 247.741 72.211 C 247.937 68.752, 247.936 63.352, 247.738 60.211 C 247.540 57.070, 247.380 59.900, 247.382 66.500 M 320.385 67 C 320.385 73.875, 320.545 76.688, 320.740 73.250 C 320.936 69.813, 320.936 64.188, 320.740 60.750 C 320.545 57.313, 320.385 60.125, 320.385 67 M 127.250 163.750 C 167.262 163.895, 232.737 163.895, 272.750 163.750 C 312.762 163.605, 280.025 163.487, 200 163.487 C 119.975 163.487, 87.237 163.605, 127.250 163.750 M 375.497 250.250 L 302.500 323.500 375.750 250.503 C 416.038 210.354, 449 177.391, 449 177.253 C 449 177.114, 448.886 177, 448.747 177 C 448.609 177, 415.646 209.962, 375.497 250.250 M 315 356.500 C 326.265 367.775, 335.707 377, 335.982 377 C 336.257 377, 327.265 367.775, 316 356.500 C 304.735 345.225, 295.293 336, 295.018 336 C 294.743 336, 303.735 345.225, 315 356.500 M 279.391 380.567 C 279.014 381.630, 278.096 384.017, 277.352 385.872 C 274.858 392.091, 276.081 396, 280.522 396 C 283.052 396, 291.806 393.123, 292.451 392.080 C 292.700 391.677, 290.018 388.487, 286.491 384.991 C 280.880 379.430, 279.992 378.876, 279.391 380.567 M 118.250 494.750 C 163.212 494.894, 236.787 494.894, 281.750 494.750 C 326.712 494.606, 289.925 494.488, 200 494.488 C 110.075 494.488, 73.287 494.606, 118.250 494.750" stroke="none" fill="#7a6d79" fill-rule="evenodd"/><path d="M 45.463 3.530 C 39.543 5.722, 34.527 10.301, 31.590 16.195 C 29.340 20.710, 29 22.663, 29 31.059 L 29 40.725 22.661 43.846 C 14.881 47.676, 6.907 55.829, 3.196 63.747 L 0.500 69.500 0.500 101.891 L 0.500 134.281 3.024 136.167 C 5.189 137.785, 6.024 137.888, 8.882 136.891 C 14.603 134.897, 14.997 132.608, 15.022 101.282 C 15.046 70.372, 15.299 68.968, 22.055 62.191 C 28.608 55.616, 28.669 55.673, 29.227 68.787 C 29.778 81.725, 30.940 85.584, 36.030 91.382 C 45.330 101.974, 61.309 102.418, 71.364 92.364 C 77.302 86.425, 78.414 82.753, 78.820 67.750 L 79.192 54 90.482 54 L 101.773 54 102.190 67.750 C 102.653 83.053, 103.811 86.666, 110.162 92.638 C 115.606 97.756, 119.764 99.433, 127 99.429 C 134.763 99.425, 139.862 97.109, 145.262 91.132 C 150.317 85.537, 152 79.088, 152 65.318 L 152 54 163.404 54 L 174.808 54 175.180 67.750 C 175.494 79.381, 175.879 82.118, 177.675 85.513 C 182.520 94.668, 190.155 99.426, 200 99.426 C 207.697 99.426, 212.985 97.059, 217.970 91.382 C 223.266 85.349, 224.255 81.846, 224.782 67.250 L 225.261 54 236.630 54 L 248 54 248 66.322 C 248 80.876, 249.421 86.132, 254.875 91.751 C 260.287 97.328, 265.274 99.442, 273 99.433 C 280.836 99.425, 286.150 96.979, 291.232 91.042 C 295.998 85.475, 297 81.233, 297 66.634 L 297 54 308.906 54 L 320.812 54 321.156 68.250 C 321.482 81.770, 321.644 82.745, 324.317 87.292 C 334.288 104.256, 358.373 103.567, 367.250 86.064 C 369.789 81.057, 370 79.735, 370 68.821 C 370 62.319, 370.369 57, 370.820 57 C 372.991 57, 380.534 64.950, 382.626 69.444 L 384.980 74.500 384.990 147.505 L 385 220.510 349.245 256.255 L 313.490 292 183.745 292 C 55.333 292, 53.979 292.021, 52 294 C 48.328 297.672, 49.877 303.064, 55.128 304.895 C 57.375 305.678, 93.418 306, 178.870 306 L 299.442 306 292.971 312.522 C 286.565 318.979, 286.435 319.222, 279.993 336.772 L 273.487 354.500 164.493 355 C 104.547 355.275, 54.700 355.890, 53.722 356.368 C 49.739 358.312, 48.843 363.843, 52 367 C 53.975 368.975, 55.333 369, 161 369 C 219.850 369, 268 369.139, 268 369.309 C 268 369.478, 266.703 373.191, 265.119 377.559 C 261.171 388.438, 260.703 391.182, 261.981 395.929 C 264.089 403.760, 273.008 410.925, 280.711 410.978 C 282.477 410.990, 299.352 405.368, 318.211 398.484 L 352.500 385.968 368.011 370.484 C 376.543 361.968, 383.868 355, 384.291 355 C 384.713 355, 384.933 382.563, 384.779 416.250 L 384.500 477.500 381.800 482.094 C 380.314 484.620, 377.509 487.900, 375.565 489.382 C 367.748 495.345, 378.508 495.001, 200.124 494.994 C 90.492 494.991, 35.271 494.647, 32.775 493.954 C 26.892 492.320, 20.815 487.106, 17.750 481.064 L 15 475.641 15 320.789 C 15 150.283, 15.379 160.374, 8.882 158.109 C 6.024 157.112, 5.188 157.216, 3.024 158.831 L 0.500 160.716 0.228 318.608 L -0.043 476.500 2.114 482.500 C 6.300 494.142, 14.394 502.593, 25.748 507.177 L 31.500 509.500 199.500 509.500 C 358.668 509.500, 367.771 509.405, 372.656 507.701 C 384.460 503.582, 394.240 493.329, 398.054 481.073 C 399.901 475.141, 400 471.389, 400 407.690 L 400 340.557 422 318.478 C 442.667 297.736, 444 296.176, 444 292.725 C 444 289.668, 443.504 288.795, 441.050 287.526 C 439.427 286.687, 437.062 286, 435.795 286 C 434.093 286, 422.648 296.845, 392 327.500 C 369.180 350.325, 350.053 369, 349.496 369 C 348.939 369, 338.138 358.647, 325.493 345.993 L 302.502 322.986 376.515 248.993 L 450.528 175 454.985 175 C 459.436 175, 459.467 175.025, 478.221 193.779 L 497 212.558 497 217.456 L 497 222.354 475.500 244 C 453.396 266.254, 452.551 267.434, 455.250 272.264 C 456.964 275.331, 458.023 275.967, 461.447 275.985 C 463.955 275.998, 467.567 272.839, 485.730 254.750 C 500.774 239.768, 507.793 232.043, 509.530 228.561 L 511.992 223.623 512.250 350.561 C 512.464 455.771, 512.510 450.283, 512.522 318.500 C 512.529 231.050, 512.401 171.200, 512.236 185.500 L 511.937 211.500 509.907 207 C 508.496 203.872, 502.177 196.771, 489.188 183.715 C 468.696 163.117, 464.291 160, 455.670 160 C 445.223 160, 444.176 160.711, 421.250 183.383 L 400 204.398 400 139.167 C 400 75.879, 399.938 73.754, 397.933 67.801 C 394.230 56.808, 386.382 47.895, 376.370 43.312 L 371 40.853 371 32.052 C 371 18.027, 367.374 10.736, 357.754 5.418 C 353.341 2.978, 351.380 2.517, 345.500 2.536 C 337.516 2.563, 332.540 4.655, 327.362 10.162 C 322.067 15.794, 320.664 19.627, 320.192 29.750 L 319.761 39 308.881 39 L 298 39 298 30.196 C 298 22.728, 297.607 20.604, 295.410 16.195 C 286.041 -2.606, 259.523 -2.429, 249.762 16.500 C 248.279 19.375, 247.563 23.102, 247.213 29.750 L 246.727 39 235.864 39 L 225 39 225 30.196 C 225 22.728, 224.607 20.604, 222.410 16.195 C 214.258 -0.163, 192.521 -2.773, 180.585 11.172 C 176.138 16.367, 174 23.188, 174 32.182 L 174 39 163.648 39 L 153.296 39 152.720 30.109 C 152.041 19.621, 149.189 12.950, 143.316 8.109 C 130.076 -2.805, 110.053 2.091, 103.395 17.871 C 102.552 19.867, 101.602 25.438, 101.284 30.250 L 100.704 39 90.491 39 L 80.277 39 79.768 30.250 C 79.488 25.438, 78.582 19.892, 77.755 17.927 C 75.641 12.908, 70.408 7.249, 65.624 4.808 C 60.396 2.141, 50.850 1.536, 45.463 3.530 M 49.308 18.010 C 48.103 18.495, 46.303 20.133, 45.308 21.649 C 43.711 24.084, 43.463 27.292, 43.187 49.113 C 42.831 77.306, 43.377 81.040, 48.301 84.042 C 52.150 86.389, 55.111 86.511, 59.033 84.483 C 64.829 81.486, 65.122 79.725, 64.796 49.878 L 64.500 22.833 61.234 19.917 C 57.843 16.888, 53.727 16.230, 49.308 18.010 M 122 18.279 C 116.585 20.984, 116.003 24.185, 116.002 51.282 C 116 78.739, 116.518 81.665, 121.872 84.434 C 125.698 86.412, 128.302 86.412, 132.128 84.434 C 137.482 81.665, 138 78.739, 137.998 51.282 C 137.997 29.686, 137.772 26.052, 136.248 23.014 C 134.352 19.233, 130.946 17.029, 127 17.029 C 125.625 17.029, 123.375 17.592, 122 18.279 M 192.893 19.803 L 189.500 22.833 189.204 49.878 C 188.953 72.846, 189.144 77.378, 190.471 79.944 C 192.145 83.182, 196.580 86, 200 86 C 203.054 86, 207.743 83.325, 209.220 80.740 C 210.637 78.260, 211.686 35.061, 210.519 27.276 C 209.597 21.132, 206.494 17.923, 200.860 17.288 C 196.809 16.831, 195.899 17.119, 192.893 19.803 M 265.766 19.918 L 262.500 22.836 262.500 51.337 L 262.500 79.839 264.910 82.404 C 269.239 87.012, 276.336 86.776, 280.904 81.873 C 282.928 79.700, 283 78.666, 283 51.746 C 283 34.538, 282.606 23.132, 281.970 21.945 C 281.404 20.886, 279.626 19.341, 278.020 18.510 C 273.465 16.155, 269.463 16.615, 265.766 19.918 M 338.400 20.400 L 335 23.800 335 51.384 L 335 78.968 337.918 82.234 C 340.423 85.038, 341.496 85.500, 345.500 85.500 C 349.504 85.500, 350.577 85.038, 353.082 82.234 L 356 78.968 356 52.031 C 356 22.975, 355.686 20.923, 350.855 18.425 C 346.138 15.986, 342.188 16.612, 338.400 20.400 M 0.488 319.500 C 0.488 406.950, 0.606 442.577, 0.750 398.671 C 0.894 354.765, 0.894 283.215, 0.750 239.671 C 0.606 196.127, 0.488 232.050, 0.488 319.500 M 52.075 166.632 C 49.351 170.095, 49.455 172.546, 52.455 175.545 L 54.909 178 198.889 178 C 283.640 178, 343.861 177.623, 345.279 177.084 C 346.604 176.580, 348.274 174.752, 348.992 173.020 C 350.151 170.221, 350.074 169.576, 348.290 167.186 L 346.284 164.500 200.217 164.247 L 54.150 163.993 52.075 166.632 M 52.177 230.311 C 49.493 233.168, 49.407 236.046, 51.912 239.139 L 53.823 241.500 198.162 241.764 C 301.361 241.952, 343.259 241.714, 345.164 240.928 C 346.630 240.323, 348.383 238.488, 349.062 236.851 C 350.137 234.256, 350.037 233.527, 348.290 231.186 L 346.284 228.500 200.320 228.247 L 54.355 227.993 52.177 230.311 M 294.514 337.207 C 294.263 337.918, 292.011 344.114, 289.510 350.976 L 284.961 363.451 296.856 375.346 L 308.751 387.241 321.626 382.508 C 328.707 379.905, 334.937 377.367, 335.470 376.868 C 336.076 376.301, 329.318 368.810, 317.470 356.916 C 297.689 337.058, 295.293 335, 294.514 337.207 M 279.575 378.879 C 279.206 379.475, 278.045 382.464, 276.993 385.521 C 274.833 391.798, 275.491 395.386, 279.006 396.502 C 281.058 397.153, 294 393.300, 294 392.038 C 294 390.513, 280.177 377.904, 279.575 378.879 M 54.315 420.007 C 49.737 421.852, 48.708 427.438, 52.323 430.833 L 54.645 433.015 116.465 432.758 L 178.284 432.500 180.206 429.927 C 181.566 428.104, 181.928 426.562, 181.446 424.642 C 180.018 418.950, 180.532 418.994, 115.800 419.063 C 83.185 419.098, 55.517 419.523, 54.315 420.007 M 205.635 421.073 C 202.408 423.611, 202.123 428.123, 205.007 431.007 C 206.982 432.982, 208.093 433.010, 276.649 432.757 L 346.284 432.500 348.290 429.814 C 350.027 427.487, 350.133 426.735, 349.080 424.193 C 348.412 422.580, 346.749 420.751, 345.385 420.130 C 343.621 419.326, 323.490 419, 275.588 419 C 208.998 419, 208.241 419.022, 205.635 421.073" stroke="none" fill="#000000" fill-rule="evenodd"/><path d="M 290.873 349.775 L 286.246 362.500 297.873 374.232 L 309.500 385.963 321.500 381.484 C 328.100 379.021, 333.841 376.890, 334.257 376.750 C 334.673 376.610, 326.123 367.620, 315.257 356.773 L 295.500 337.050 290.873 349.775" stroke="none" fill="#ffdfcf" fill-rule="evenodd"/><path d="M 355.360 66 C 355.360 71.225, 355.529 73.362, 355.735 70.750 C 355.941 68.138, 355.941 63.862, 355.735 61.250 C 355.529 58.638, 355.360 60.775, 355.360 66 M 451.500 175.983 C 450.400 176.454, 416.652 209.724, 376.505 249.917 L 303.511 322.994 326.493 345.993 L 349.476 368.993 391.516 326.996 C 434.803 283.753, 435.192 283.427, 440.188 286.100 C 441.994 287.067, 443.024 286.429, 448.665 280.850 C 453.624 275.947, 454.945 274.044, 454.463 272.500 C 452.407 265.915, 451.625 267.030, 474.295 244.200 C 495.842 222.501, 497.959 219.697, 496.473 214.822 C 495.482 211.570, 462.203 178.079, 458.282 176.388 C 454.642 174.818, 454.273 174.796, 451.500 175.983" stroke="none" fill="#fe646f" fill-rule="evenodd"/><path d="M 45.463 3.530 C 39.543 5.722, 34.527 10.301, 31.590 16.195 C 29.340 20.710, 29 22.663, 29 31.059 L 29 40.725 22.661 43.846 C 14.881 47.676, 6.907 55.829, 3.196 63.747 L 0.500 69.500 0.500 101.891 L 0.500 134.281 3.024 136.167 C 5.189 137.785, 6.024 137.888, 8.882 136.891 C 14.603 134.897, 14.997 132.608, 15.022 101.282 C 15.046 70.372, 15.299 68.968, 22.055 62.191 C 28.608 55.616, 28.669 55.673, 29.227 68.787 C 29.778 81.725, 30.940 85.584, 36.030 91.382 C 45.330 101.974, 61.309 102.418, 71.364 92.364 C 77.302 86.425, 78.414 82.753, 78.820 67.750 L 79.192 54 90.482 54 L 101.773 54 102.190 67.750 C 102.653 83.053, 103.811 86.666, 110.162 92.638 C 115.606 97.756, 119.764 99.433, 127 99.429 C 134.763 99.425, 139.862 97.109, 145.262 91.132 C 150.317 85.537, 152 79.088, 152 65.318 L 152 54 163.404 54 L 174.808 54 175.180 67.750 C 175.494 79.381, 175.879 82.118, 177.675 85.513 C 182.520 94.668, 190.155 99.426, 200 99.426 C 207.697 99.426, 212.985 97.059, 217.970 91.382 C 223.266 85.349, 224.255 81.846, 224.782 67.250 L 225.261 54 236.630 54 L 248 54 248 66.322 C 248 80.876, 249.421 86.132, 254.875 91.751 C 260.287 97.328, 265.274 99.442, 273 99.433 C 280.836 99.425, 286.150 96.979, 291.232 91.042 C 295.998 85.475, 297 81.233, 297 66.634 L 297 54 308.906 54 L 320.812 54 321.156 68.250 C 321.482 81.770, 321.644 82.745, 324.317 87.292 C 334.288 104.256, 358.373 103.567, 367.250 86.064 C 369.789 81.057, 370 79.735, 370 68.821 C 370 62.319, 370.369 57, 370.820 57 C 372.991 57, 380.534 64.950, 382.626 69.444 L 384.980 74.500 384.990 147.505 L 385 220.510 349.245 256.255 L 313.490 292 183.745 292 C 55.333 292, 53.979 292.021, 52 294 C 48.328 297.672, 49.877 303.064, 55.128 304.895 C 57.375 305.678, 93.418 306, 178.870 306 L 299.442 306 292.971 312.522 C 286.565 318.979, 286.435 319.222, 279.993 336.772 L 273.487 354.500 164.493 355 C 104.547 355.275, 54.700 355.890, 53.722 356.368 C 49.739 358.312, 48.843 363.843, 52 367 C 53.975 368.975, 55.333 369, 161 369 C 219.850 369, 268 369.139, 268 369.309 C 268 369.478, 266.703 373.191, 265.119 377.559 C 261.171 388.438, 260.703 391.182, 261.981 395.929 C 264.089 403.760, 273.008 410.925, 280.711 410.978 C 282.477 410.990, 299.352 405.368, 318.211 398.484 L 352.500 385.968 368.011 370.484 C 376.543 361.968, 383.868 355, 384.291 355 C 384.713 355, 384.933 382.563, 384.779 416.250 L 384.500 477.500 381.800 482.094 C 380.314 484.620, 377.509 487.900, 375.565 489.382 C 367.748 495.345, 378.508 495.001, 200.124 494.994 C 90.492 494.991, 35.271 494.647, 32.775 493.954 C 26.892 492.320, 20.815 487.106, 17.750 481.064 L 15 475.641 15 320.789 C 15 150.283, 15.379 160.374, 8.882 158.109 C 6.024 157.112, 5.188 157.216, 3.024 158.831 L 0.500 160.716 0.228 318.608 L -0.043 476.500 2.114 482.500 C 6.300 494.142, 14.394 502.593, 25.748 507.177 L 31.500 509.500 199.500 509.500 C 358.668 509.500, 367.771 509.405, 372.656 507.701 C 384.460 503.582, 394.240 493.329, 398.054 481.073 C 399.901 475.141, 400 471.389, 400 407.690 L 400 340.557 422 318.478 C 442.667 297.736, 444 296.176, 444 292.725 C 444 289.668, 443.504 288.795, 441.050 287.526 C 439.427 286.687, 437.062 286, 435.795 286 C 434.093 286, 422.648 296.845, 392 327.500 C 369.180 350.325, 350.053 369, 349.496 369 C 348.939 369, 338.138 358.647, 325.493 345.993 L 302.502 322.986 376.515 248.993 L 450.528 175 454.985 175 C 459.436 175, 459.467 175.025, 478.221 193.779 L 497 212.558 497 217.456 L 497 222.354 475.500 244 C 453.396 266.254, 452.551 267.434, 455.250 272.264 C 456.964 275.331, 458.023 275.967, 461.447 275.985 C 463.955 275.998, 467.567 272.839, 485.730 254.750 C 500.774 239.768, 507.793 232.043, 509.530 228.561 L 511.992 223.623 512.250 350.561 C 512.464 455.771, 512.510 450.283, 512.522 318.500 C 512.529 231.050, 512.401 171.200, 512.236 185.500 L 511.937 211.500 509.907 207 C 508.496 203.872, 502.177 196.771, 489.188 183.715 C 468.696 163.117, 464.291 160, 455.670 160 C 445.223 160, 444.176 160.711, 421.250 183.383 L 400 204.398 400 139.167 C 400 75.879, 399.938 73.754, 397.933 67.801 C 394.230 56.808, 386.382 47.895, 376.370 43.312 L 371 40.853 371 32.052 C 371 18.027, 367.374 10.736, 357.754 5.418 C 353.341 2.978, 351.380 2.517, 345.500 2.536 C 337.516 2.563, 332.540 4.655, 327.362 10.162 C 322.067 15.794, 320.664 19.627, 320.192 29.750 L 319.761 39 308.881 39 L 298 39 298 30.196 C 298 22.728, 297.607 20.604, 295.410 16.195 C 286.041 -2.606, 259.523 -2.429, 249.762 16.500 C 248.279 19.375, 247.563 23.102, 247.213 29.750 L 246.727 39 235.864 39 L 225 39 225 30.196 C 225 22.728, 224.607 20.604, 222.410 16.195 C 214.258 -0.163, 192.521 -2.773, 180.585 11.172 C 176.138 16.367, 174 23.188, 174 32.182 L 174 39 163.648 39 L 153.296 39 152.720 30.109 C 152.041 19.621, 149.189 12.950, 143.316 8.109 C 130.076 -2.805, 110.053 2.091, 103.395 17.871 C 102.552 19.867, 101.602 25.438, 101.284 30.250 L 100.704 39 90.491 39 L 80.277 39 79.768 30.250 C 79.488 25.438, 78.582 19.892, 77.755 17.927 C 75.641 12.908, 70.408 7.249, 65.624 4.808 C 60.396 2.141, 50.850 1.536, 45.463 3.530 M 49.308 18.010 C 48.103 18.495, 46.303 20.133, 45.308 21.649 C 43.711 24.084, 43.463 27.292, 43.187 49.113 C 42.831 77.306, 43.377 81.040, 48.301 84.042 C 52.150 86.389, 55.111 86.511, 59.033 84.483 C 64.829 81.486, 65.122 79.725, 64.796 49.878 L 64.500 22.833 61.234 19.917 C 57.843 16.888, 53.727 16.230, 49.308 18.010 M 122 18.279 C 116.585 20.984, 116.003 24.185, 116.002 51.282 C 116 78.739, 116.518 81.665, 121.872 84.434 C 125.698 86.412, 128.302 86.412, 132.128 84.434 C 137.482 81.665, 138 78.739, 137.998 51.282 C 137.997 29.686, 137.772 26.052, 136.248 23.014 C 134.352 19.233, 130.946 17.029, 127 17.029 C 125.625 17.029, 123.375 17.592, 122 18.279 M 192.893 19.803 L 189.500 22.833 189.204 49.878 C 188.953 72.846, 189.144 77.378, 190.471 79.944 C 192.145 83.182, 196.580 86, 200 86 C 203.054 86, 207.743 83.325, 209.220 80.740 C 210.637 78.260, 211.686 35.061, 210.519 27.276 C 209.597 21.132, 206.494 17.923, 200.860 17.288 C 196.809 16.831, 195.899 17.119, 192.893 19.803 M 265.766 19.918 L 262.500 22.836 262.500 51.337 L 262.500 79.839 264.910 82.404 C 269.239 87.012, 276.336 86.776, 280.904 81.873 C 282.928 79.700, 283 78.666, 283 51.746 C 283 34.538, 282.606 23.132, 281.970 21.945 C 281.404 20.886, 279.626 19.341, 278.020 18.510 C 273.465 16.155, 269.463 16.615, 265.766 19.918 M 338.400 20.400 L 335 23.800 335 51.384 L 335 78.968 337.918 82.234 C 340.423 85.038, 341.496 85.500, 345.500 85.500 C 349.504 85.500, 350.577 85.038, 353.082 82.234 L 356 78.968 356 52.031 C 356 22.975, 355.686 20.923, 350.855 18.425 C 346.138 15.986, 342.188 16.612, 338.400 20.400 M 0.488 319.500 C 0.488 406.950, 0.606 442.577, 0.750 398.671 C 0.894 354.765, 0.894 283.215, 0.750 239.671 C 0.606 196.127, 0.488 232.050, 0.488 319.500 M 52.075 166.632 C 49.351 170.095, 49.455 172.546, 52.455 175.545 L 54.909 178 198.889 178 C 283.640 178, 343.861 177.623, 345.279 177.084 C 346.604 176.580, 348.274 174.752, 348.992 173.020 C 350.151 170.221, 350.074 169.576, 348.290 167.186 L 346.284 164.500 200.217 164.247 L 54.150 163.993 52.075 166.632 M 52.177 230.311 C 49.493 233.168, 49.407 236.046, 51.912 239.139 L 53.823 241.500 198.162 241.764 C 301.361 241.952, 343.259 241.714, 345.164 240.928 C 346.630 240.323, 348.383 238.488, 349.062 236.851 C 350.137 234.256, 350.037 233.527, 348.290 231.186 L 346.284 228.500 200.320 228.247 L 54.355 227.993 52.177 230.311 M 294.514 337.207 C 294.263 337.918, 292.011 344.114, 289.510 350.976 L 284.961 363.451 296.856 375.346 L 308.751 387.241 321.626 382.508 C 328.707 379.905, 334.937 377.367, 335.470 376.868 C 336.076 376.301, 329.318 368.810, 317.470 356.916 C 297.689 337.058, 295.293 335, 294.514 337.207 M 279.575 378.879 C 279.206 379.475, 278.045 382.464, 276.993 385.521 C 274.833 391.798, 275.491 395.386, 279.006 396.502 C 281.058 397.153, 294 393.300, 294 392.038 C 294 390.513, 280.177 377.904, 279.575 378.879 M 54.315 420.007 C 49.737 421.852, 48.708 427.438, 52.323 430.833 L 54.645 433.015 116.465 432.758 L 178.284 432.500 180.206 429.927 C 181.566 428.104, 181.928 426.562, 181.446 424.642 C 180.018 418.950, 180.532 418.994, 115.800 419.063 C 83.185 419.098, 55.517 419.523, 54.315 420.007 M 205.635 421.073 C 202.408 423.611, 202.123 428.123, 205.007 431.007 C 206.982 432.982, 208.093 433.010, 276.649 432.757 L 346.284 432.500 348.290 429.814 C 350.027 427.487, 350.133 426.735, 349.080 424.193 C 348.412 422.580, 346.749 420.751, 345.385 420.130 C 343.621 419.326, 323.490 419, 275.588 419 C 208.998 419, 208.241 419.022, 205.635 421.073" stroke="none" fill="#000000" fill-rule="evenodd"/><path d="M 80 66.318 C 80 81.301, 78.393 86.702, 72.048 93.048 C 67.194 97.901, 60.152 101, 53.977 101 C 46.407 101, 36.639 95.729, 32.914 89.634 C 31.023 86.540, 31.002 89.015, 31.249 282.500 L 31.500 478.500 33.829 483.229 C 35.110 485.829, 37.428 489.317, 38.980 490.979 L 41.802 494 203.151 493.978 C 363.313 493.956, 364.533 493.941, 369 491.919 C 375.043 489.184, 378.776 485.509, 381.617 479.500 L 383.980 474.500 383.990 415.512 L 384 356.524 368.750 371.680 L 353.500 386.835 320 399.043 C 301.575 405.758, 284.865 411.472, 282.867 411.742 C 275.364 412.754, 266.560 407.907, 262.793 400.692 C 259.814 394.985, 260.018 387.481, 263.391 378.727 C 264.826 375.002, 266 371.515, 266 370.977 C 266 370.347, 228.200 370, 159.573 370 L 53.145 370 51.073 367.365 C 48.347 363.900, 48.453 360.747, 51.413 357.306 L 53.826 354.500 163.207 354.233 L 272.588 353.966 278.993 336.233 C 285.008 319.580, 285.729 318.151, 290.836 312.766 L 296.274 307.032 175.050 306.766 L 53.827 306.500 51.413 303.694 C 48.453 300.253, 48.347 297.100, 51.073 293.635 L 53.145 291 182.828 291 L 312.510 291 348.280 255.220 L 384.051 219.439 383.775 145.970 C 383.521 78.171, 383.365 72.253, 381.748 69.297 C 379.884 65.887, 373.261 59, 371.847 59 C 371.381 59, 370.980 63.837, 370.956 69.750 C 370.892 85.510, 367.804 92.022, 357.754 97.588 C 353.302 100.054, 351.432 100.488, 345.500 100.432 C 337.514 100.358, 332.499 98.264, 327.307 92.838 C 321.382 86.645, 320.047 82.048, 320.022 67.750 L 320 55 309 55 L 298 55 298 68.386 C 298 81.081, 297.856 82.048, 295.213 87.136 C 290.474 96.258, 279.737 101.886, 269.630 100.545 C 263.511 99.734, 258.438 97.173, 254.362 92.838 C 248.379 86.474, 247.580 83.794, 247.177 68.750 L 246.808 55 236.548 55 L 226.287 55 225.760 68.002 C 225.296 79.456, 224.914 81.656, 222.553 86.482 C 219.317 93.095, 214.201 97.550, 207.568 99.529 C 201.289 101.402, 198.640 101.379, 191.932 99.389 C 188.024 98.230, 185.199 96.477, 181.861 93.139 C 175.671 86.950, 174 81.247, 174 66.318 L 174 55 163.616 55 L 153.232 55 152.836 68.250 C 152.377 83.653, 150.672 88.557, 143.706 94.520 C 139.588 98.044, 131.969 101, 127 101 C 122.031 101, 114.412 98.044, 110.294 94.520 C 103.328 88.557, 101.623 83.653, 101.164 68.250 L 100.768 55 90.384 55 L 80 55 80 66.318 M 51.455 165.455 C 47.641 169.268, 48.774 175.665, 53.657 177.890 C 55.407 178.687, 96.774 179, 200.412 179 C 342.833 179, 344.763 178.974, 347.253 177.016 C 348.640 175.925, 350.060 173.896, 350.409 172.507 C 351.138 169.602, 348.893 164.557, 346.455 163.621 C 345.565 163.280, 279.378 163, 199.373 163 L 53.909 163 51.455 165.455 M 51.073 229.635 C 47.676 233.953, 49.044 239.950, 53.880 241.946 C 55.727 242.708, 99.214 242.949, 201.222 242.764 L 345.945 242.500 348.172 240.272 C 351.256 237.189, 351.214 231.401, 348.089 228.871 C 345.855 227.062, 340.930 227, 199.462 227 L 53.145 227 51.073 229.635 M 53.364 419.158 C 51.070 420.281, 49 423.960, 49 426.912 C 49 427.912, 49.933 429.916, 51.073 431.365 L 53.145 434 115.462 434 C 173.341 434, 177.929 433.875, 179.886 432.250 C 183.301 429.414, 183.635 424.850, 180.679 421.413 L 178.174 418.500 116.837 418.306 C 75.778 418.176, 54.794 418.457, 53.364 419.158 M 206.500 419.143 C 201.439 421.940, 200.373 428.123, 204.314 431.826 L 206.629 434 276.204 434 C 342.692 434, 345.881 433.917, 348.089 432.129 C 351.214 429.599, 351.256 423.812, 348.173 420.728 L 345.945 418.500 277.223 418.269 C 228.519 418.105, 207.917 418.360, 206.500 419.143" stroke="none" fill="#faf7f7" fill-rule="evenodd"/><path d="M 79.382 66.500 C 79.384 73.100, 79.546 75.670, 79.741 72.211 C 79.937 68.752, 79.936 63.352, 79.738 60.211 C 79.540 57.070, 79.380 59.900, 79.382 66.500 M 101.378 66 C 101.378 72.325, 101.541 74.912, 101.739 71.750 C 101.937 68.587, 101.937 63.412, 101.739 60.250 C 101.541 57.087, 101.378 59.675, 101.378 66 M 152.378 66 C 152.378 72.325, 152.541 74.912, 152.739 71.750 C 152.937 68.587, 152.937 63.412, 152.739 60.250 C 152.541 57.087, 152.378 59.675, 152.378 66 M 174.385 67 C 174.385 73.875, 174.545 76.688, 174.740 73.250 C 174.936 69.813, 174.936 64.188, 174.740 60.750 C 174.545 57.313, 174.385 60.125, 174.385 67 M 23.361 62.500 C 15.501 70.147, 15 72.720, 15 105.459 C 15 134.819, 14.783 136.085, 9.523 137.405 C 7.048 138.026, 7 138.218, 7 147.500 C 7 156.782, 7.048 156.974, 9.523 157.595 C 15.358 159.060, 15 148.638, 15 317.041 C 15 486.673, 14.676 477.551, 20.970 485.160 C 24.621 489.574, 33.089 494, 37.883 494 L 41.374 494 38.869 491.250 C 35.111 487.124, 33.348 483.911, 31.585 477.974 C 30.151 473.146, 29.977 452.969, 29.857 278.052 C 29.784 171.048, 29.449 77.650, 29.112 70.500 L 28.500 57.500 23.361 62.500 M 384.474 150 C 384.474 188.775, 384.598 204.638, 384.750 185.250 C 384.901 165.863, 384.901 134.138, 384.750 114.750 C 384.598 95.363, 384.474 111.225, 384.474 150 M 126.672 178.750 C 166.366 178.895, 231.616 178.895, 271.672 178.750 C 311.727 178.605, 279.250 178.487, 199.500 178.487 C 119.750 178.487, 86.977 178.605, 126.672 178.750 M 127.750 242.750 C 167.488 242.895, 232.513 242.895, 272.250 242.750 C 311.988 242.605, 279.475 242.487, 200 242.487 C 120.525 242.487, 88.013 242.605, 127.750 242.750 M 368.487 371.250 L 353.500 386.500 368.742 371.521 L 383.983 356.542 384.250 413.521 L 384.517 470.500 384.758 413.250 C 384.891 381.762, 384.657 356, 384.237 356 C 383.818 356, 376.731 362.863, 368.487 371.250 M 299.500 377 C 304.427 381.950, 308.683 386, 308.958 386 C 309.233 386, 305.427 381.950, 300.500 377 C 295.573 372.050, 291.317 368, 291.042 368 C 290.767 368, 294.573 372.050, 299.500 377 M 85.750 418.749 C 102.388 418.903, 129.613 418.903, 146.250 418.749 C 162.888 418.596, 149.275 418.470, 116 418.470 C 82.725 418.470, 69.113 418.596, 85.750 418.749 M 242.823 418.750 C 261.701 418.902, 292.301 418.902, 310.823 418.749 C 329.345 418.597, 313.900 418.473, 276.500 418.473 C 239.100 418.473, 223.945 418.597, 242.823 418.750" stroke="none" fill="#dedbee" fill-rule="evenodd"/><path d="M 45.463 3.530 C 39.543 5.722, 34.527 10.301, 31.590 16.195 C 29.340 20.710, 29 22.663, 29 31.059 L 29 40.725 22.661 43.846 C 14.881 47.676, 6.907 55.829, 3.196 63.747 L 0.500 69.500 0.500 101.891 L 0.500 134.281 3.024 136.167 C 5.189 137.785, 6.024 137.888, 8.882 136.891 C 14.603 134.897, 14.997 132.608, 15.022 101.282 C 15.046 70.372, 15.299 68.968, 22.055 62.191 C 28.608 55.616, 28.669 55.673, 29.227 68.787 C 29.778 81.725, 30.940 85.584, 36.030 91.382 C 45.330 101.974, 61.309 102.418, 71.364 92.364 C 77.302 86.425, 78.414 82.753, 78.820 67.750 L 79.192 54 90.482 54 L 101.773 54 102.190 67.750 C 102.653 83.053, 103.811 86.666, 110.162 92.638 C 115.606 97.756, 119.764 99.433, 127 99.429 C 134.763 99.425, 139.862 97.109, 145.262 91.132 C 150.317 85.537, 152 79.088, 152 65.318 L 152 54 163.404 54 L 174.808 54 175.180 67.750 C 175.494 79.381, 175.879 82.118, 177.675 85.513 C 182.520 94.668, 190.155 99.426, 200 99.426 C 207.697 99.426, 212.985 97.059, 217.970 91.382 C 223.266 85.349, 224.255 81.846, 224.782 67.250 L 225.261 54 236.630 54 L 248 54 248 66.322 C 248 80.876, 249.421 86.132, 254.875 91.751 C 260.287 97.328, 265.274 99.442, 273 99.433 C 280.836 99.425, 286.150 96.979, 291.232 91.042 C 295.998 85.475, 297 81.233, 297 66.634 L 297 54 308.906 54 L 320.812 54 321.156 68.250 C 321.482 81.770, 321.644 82.745, 324.317 87.292 C 334.288 104.256, 358.373 103.567, 367.250 86.064 C 369.789 81.057, 370 79.735, 370 68.821 C 370 62.319, 370.369 57, 370.820 57 C 372.991 57, 380.534 64.950, 382.626 69.444 L 384.980 74.500 384.990 147.505 L 385 220.510 349.245 256.255 L 313.490 292 183.745 292 C 55.333 292, 53.979 292.021, 52 294 C 48.328 297.672, 49.877 303.064, 55.128 304.895 C 57.375 305.678, 93.418 306, 178.870 306 L 299.442 306 292.971 312.522 C 286.565 318.979, 286.435 319.222, 279.993 336.772 L 273.487 354.500 164.493 355 C 104.547 355.275, 54.700 355.890, 53.722 356.368 C 49.739 358.312, 48.843 363.843, 52 367 C 53.975 368.975, 55.333 369, 161 369 C 219.850 369, 268 369.139, 268 369.309 C 268 369.478, 266.703 373.191, 265.119 377.559 C 261.171 388.438, 260.703 391.182, 261.981 395.929 C 264.089 403.760, 273.008 410.925, 280.711 410.978 C 282.477 410.990, 299.352 405.368, 318.211 398.484 L 352.500 385.968 368.011 370.484 C 376.543 361.968, 383.868 355, 384.291 355 C 384.713 355, 384.933 382.563, 384.779 416.250 L 384.500 477.500 381.800 482.094 C 380.314 484.620, 377.509 487.900, 375.565 489.382 C 367.748 495.345, 378.508 495.001, 200.124 494.994 C 90.492 494.991, 35.271 494.647, 32.775 493.954 C 26.892 492.320, 20.815 487.106, 17.750 481.064 L 15 475.641 15 320.789 C 15 150.283, 15.379 160.374, 8.882 158.109 C 6.024 157.112, 5.188 157.216, 3.024 158.831 L 0.500 160.716 0.228 318.608 L -0.043 476.500 2.114 482.500 C 6.300 494.142, 14.394 502.593, 25.748 507.177 L 31.500 509.500 199.500 509.500 C 358.668 509.500, 367.771 509.405, 372.656 507.701 C 384.460 503.582, 394.240 493.329, 398.054 481.073 C 399.901 475.141, 400 471.389, 400 407.690 L 400 340.557 422 318.478 C 442.667 297.736, 444 296.176, 444 292.725 C 444 289.668, 443.504 288.795, 441.050 287.526 C 439.427 286.687, 437.062 286, 435.795 286 C 434.093 286, 422.648 296.845, 392 327.500 C 369.180 350.325, 350.053 369, 349.496 369 C 348.939 369, 338.138 358.647, 325.493 345.993 L 302.502 322.986 376.515 248.993 L 450.528 175 454.985 175 C 459.436 175, 459.467 175.025, 478.221 193.779 L 497 212.558 497 217.456 L 497 222.354 475.500 244 C 453.396 266.254, 452.551 267.434, 455.250 272.264 C 456.964 275.331, 458.023 275.967, 461.447 275.985 C 463.955 275.998, 467.567 272.839, 485.730 254.750 C 500.774 239.768, 507.793 232.043, 509.530 228.561 L 511.992 223.623 512.250 350.561 C 512.464 455.771, 512.510 450.283, 512.522 318.500 C 512.529 231.050, 512.401 171.200, 512.236 185.500 L 511.937 211.500 509.907 207 C 508.496 203.872, 502.177 196.771, 489.188 183.715 C 468.696 163.117, 464.291 160, 455.670 160 C 445.223 160, 444.176 160.711, 421.250 183.383 L 400 204.398 400 139.167 C 400 75.879, 399.938 73.754, 397.933 67.801 C 394.230 56.808, 386.382 47.895, 376.370 43.312 L 371 40.853 371 32.052 C 371 18.027, 367.374 10.736, 357.754 5.418 C 353.341 2.978, 351.380 2.517, 345.500 2.536 C 337.516 2.563, 332.540 4.655, 327.362 10.162 C 322.067 15.794, 320.664 19.627, 320.192 29.750 L 319.761 39 308.881 39 L 298 39 298 30.196 C 298 22.728, 297.607 20.604, 295.410 16.195 C 286.041 -2.606, 259.523 -2.429, 249.762 16.500 C 248.279 19.375, 247.563 23.102, 247.213 29.750 L 246.727 39 235.864 39 L 225 39 225 30.196 C 225 22.728, 224.607 20.604, 222.410 16.195 C 214.258 -0.163, 192.521 -2.773, 180.585 11.172 C 176.138 16.367, 174 23.188, 174 32.182 L 174 39 163.648 39 L 153.296 39 152.720 30.109 C 152.041 19.621, 149.189 12.950, 143.316 8.109 C 130.076 -2.805, 110.053 2.091, 103.395 17.871 C 102.552 19.867, 101.602 25.438, 101.284 30.250 L 100.704 39 90.491 39 L 80.277 39 79.768 30.250 C 79.488 25.438, 78.582 19.892, 77.755 17.927 C 75.641 12.908, 70.408 7.249, 65.624 4.808 C 60.396 2.141, 50.850 1.536, 45.463 3.530 M 49.308 18.010 C 48.103 18.495, 46.303 20.133, 45.308 21.649 C 43.711 24.084, 43.463 27.292, 43.187 49.113 C 42.831 77.306, 43.377 81.040, 48.301 84.042 C 52.150 86.389, 55.111 86.511, 59.033 84.483 C 64.829 81.486, 65.122 79.725, 64.796 49.878 L 64.500 22.833 61.234 19.917 C 57.843 16.888, 53.727 16.230, 49.308 18.010 M 122 18.279 C 116.585 20.984, 116.003 24.185, 116.002 51.282 C 116 78.739, 116.518 81.665, 121.872 84.434 C 125.698 86.412, 128.302 86.412, 132.128 84.434 C 137.482 81.665, 138 78.739, 137.998 51.282 C 137.997 29.686, 137.772 26.052, 136.248 23.014 C 134.352 19.233, 130.946 17.029, 127 17.029 C 125.625 17.029, 123.375 17.592, 122 18.279 M 192.893 19.803 L 189.500 22.833 189.204 49.878 C 188.953 72.846, 189.144 77.378, 190.471 79.944 C 192.145 83.182, 196.580 86, 200 86 C 203.054 86, 207.743 83.325, 209.220 80.740 C 210.637 78.260, 211.686 35.061, 210.519 27.276 C 209.597 21.132, 206.494 17.923, 200.860 17.288 C 196.809 16.831, 195.899 17.119, 192.893 19.803 M 265.766 19.918 L 262.500 22.836 262.500 51.337 L 262.500 79.839 264.910 82.404 C 269.239 87.012, 276.336 86.776, 280.904 81.873 C 282.928 79.700, 283 78.666, 283 51.746 C 283 34.538, 282.606 23.132, 281.970 21.945 C 281.404 20.886, 279.626 19.341, 278.020 18.510 C 273.465 16.155, 269.463 16.615, 265.766 19.918 M 338.400 20.400 L 335 23.800 335 51.384 L 335 78.968 337.918 82.234 C 340.423 85.038, 341.496 85.500, 345.500 85.500 C 349.504 85.500, 350.577 85.038, 353.082 82.234 L 356 78.968 356 52.031 C 356 22.975, 355.686 20.923, 350.855 18.425 C 346.138 15.986, 342.188 16.612, 338.400 20.400 M 0.488 319.500 C 0.488 406.950, 0.606 442.577, 0.750 398.671 C 0.894 354.765, 0.894 283.215, 0.750 239.671 C 0.606 196.127, 0.488 232.050, 0.488 319.500 M 52.075 166.632 C 49.351 170.095, 49.455 172.546, 52.455 175.545 L 54.909 178 198.889 178 C 283.640 178, 343.861 177.623, 345.279 177.084 C 346.604 176.580, 348.274 174.752, 348.992 173.020 C 350.151 170.221, 350.074 169.576, 348.290 167.186 L 346.284 164.500 200.217 164.247 L 54.150 163.993 52.075 166.632 M 52.177 230.311 C 49.493 233.168, 49.407 236.046, 51.912 239.139 L 53.823 241.500 198.162 241.764 C 301.361 241.952, 343.259 241.714, 345.164 240.928 C 346.630 240.323, 348.383 238.488, 349.062 236.851 C 350.137 234.256, 350.037 233.527, 348.290 231.186 L 346.284 228.500 200.320 228.247 L 54.355 227.993 52.177 230.311 M 294.514 337.207 C 294.263 337.918, 292.011 344.114, 289.510 350.976 L 284.961 363.451 296.856 375.346 L 308.751 387.241 321.626 382.508 C 328.707 379.905, 334.937 377.367, 335.470 376.868 C 336.076 376.301, 329.318 368.810, 317.470 356.916 C 297.689 337.058, 295.293 335, 294.514 337.207 M 279.575 378.879 C 279.206 379.475, 278.045 382.464, 276.993 385.521 C 274.833 391.798, 275.491 395.386, 279.006 396.502 C 281.058 397.153, 294 393.300, 294 392.038 C 294 390.513, 280.177 377.904, 279.575 378.879 M 54.315 420.007 C 49.737 421.852, 48.708 427.438, 52.323 430.833 L 54.645 433.015 116.465 432.758 L 178.284 432.500 180.206 429.927 C 181.566 428.104, 181.928 426.562, 181.446 424.642 C 180.018 418.950, 180.532 418.994, 115.800 419.063 C 83.185 419.098, 55.517 419.523, 54.315 420.007 M 205.635 421.073 C 202.408 423.611, 202.123 428.123, 205.007 431.007 C 206.982 432.982, 208.093 433.010, 276.649 432.757 L 346.284 432.500 348.290 429.814 C 350.027 427.487, 350.133 426.735, 349.080 424.193 C 348.412 422.580, 346.749 420.751, 345.385 420.130 C 343.621 419.326, 323.490 419, 275.588 419 C 208.998 419, 208.241 419.022, 205.635 421.073" stroke="none" fill="#000000" fill-rule="evenodd"/><path d="M 48.750 19.080 C 44.451 21.584, 44 24.617, 44 51.049 C 44 71.680, 44.278 76.784, 45.548 79.460 C 47.938 84.496, 53.169 86.247, 58.528 83.805 C 63.658 81.468, 64 79.383, 64 50.473 L 64 23.846 61.077 20.923 C 58.846 18.692, 57.248 18.007, 54.327 18.030 C 52.222 18.047, 49.712 18.519, 48.750 19.080 M 120.306 20.412 L 117.500 22.824 117.202 49.590 C 116.879 78.703, 117.213 81.024, 122.091 83.547 C 125.646 85.385, 128.354 85.385, 131.909 83.547 C 136.787 81.024, 137.121 78.703, 136.798 49.590 L 136.500 22.824 133.694 20.412 C 131.769 18.757, 129.668 18, 127 18 C 124.332 18, 122.231 18.757, 120.306 20.412 M 192.923 20.923 L 190 23.846 190 50.473 C 190 79.383, 190.342 81.468, 195.472 83.805 C 199.647 85.708, 202.728 85.215, 206.234 82.084 L 209.500 79.167 209.798 52.907 C 210.112 25.263, 209.749 22.338, 205.640 19.460 C 202.032 16.933, 196.248 17.598, 192.923 20.923 M 265.923 20.923 L 263 23.846 263 51.367 C 263 78.472, 263.034 78.928, 265.252 81.506 C 266.750 83.248, 268.877 84.308, 271.610 84.674 C 275.176 85.153, 276.162 84.827, 279.108 82.196 L 282.500 79.167 282.816 54.344 C 282.990 40.692, 282.848 28.005, 282.501 26.152 C 281.002 18.161, 271.638 15.208, 265.923 20.923 M 338.923 20.923 L 336 23.846 336 51.500 L 336 79.154 338.923 82.077 C 342.886 86.040, 348.048 86.106, 351.910 82.244 C 354.638 79.516, 354.674 79.310, 355.333 62.584 C 356.166 41.472, 356.180 30.149, 355.378 26.139 C 353.778 18.141, 344.611 15.235, 338.923 20.923" stroke="none" fill="#ffd15b" fill-rule="evenodd"/><path d="M 116.436 51.500 C 116.436 65.800, 116.577 71.511, 116.748 64.191 C 116.919 56.871, 116.918 45.171, 116.747 38.191 C 116.575 31.211, 116.435 37.200, 116.436 51.500 M 137.436 51.500 C 137.436 65.800, 137.577 71.511, 137.748 64.191 C 137.919 56.871, 137.918 45.171, 137.747 38.191 C 137.575 31.211, 137.435 37.200, 137.436 51.500 M 43.434 51.500 C 43.433 65.250, 43.574 71.014, 43.747 64.308 C 43.919 57.603, 43.920 46.353, 43.748 39.308 C 43.576 32.264, 43.434 37.750, 43.434 51.500 M 210.432 51 C 210.432 64.475, 210.574 69.987, 210.747 63.250 C 210.920 56.513, 210.920 45.487, 210.747 38.750 C 210.574 32.013, 210.432 37.525, 210.432 51 M 84.789 54.741 C 88.248 54.937, 93.648 54.936, 96.789 54.738 C 99.930 54.540, 97.100 54.380, 90.500 54.382 C 83.900 54.384, 81.330 54.546, 84.789 54.741 M 157.789 54.741 C 161.248 54.937, 166.648 54.936, 169.789 54.738 C 172.930 54.540, 170.100 54.380, 163.500 54.382 C 156.900 54.384, 154.330 54.546, 157.789 54.741 M 230.789 54.741 C 234.248 54.937, 239.648 54.936, 242.789 54.738 C 245.930 54.540, 243.100 54.380, 236.500 54.382 C 229.900 54.384, 227.330 54.546, 230.789 54.741 M 297.215 66.250 L 297.430 78.500 297.746 66.781 L 298.063 55.063 309.781 54.746 L 321.500 54.430 309.250 54.215 L 297 54 297.215 66.250 M 64.378 67 C 64.378 73.325, 64.541 75.912, 64.739 72.750 C 64.937 69.587, 64.937 64.412, 64.739 61.250 C 64.541 58.087, 64.378 60.675, 64.378 67 M 370.160 66.250 C 370.323 75.655, 370.719 74.534, 371.222 63.248 C 371.375 59.810, 371.163 56.997, 370.750 56.998 C 370.337 56.999, 370.072 61.163, 370.160 66.250 M 125.250 85.689 C 126.213 85.941, 127.787 85.941, 128.750 85.689 C 129.713 85.438, 128.925 85.232, 127 85.232 C 125.075 85.232, 124.287 85.438, 125.250 85.689 M 477.500 194 C 487.389 203.900, 495.704 212, 495.979 212 C 496.254 212, 488.389 203.900, 478.500 194 C 468.611 184.100, 460.296 176, 460.021 176 C 459.746 176, 467.611 184.100, 477.500 194 M 349.004 255.496 L 313.518 290.993 184.009 291.250 L 54.500 291.508 184.005 291.754 L 313.510 292 349.500 256 C 369.294 236.200, 385.265 220, 384.990 220 C 384.714 220, 368.521 235.973, 349.004 255.496 M 474.991 243.750 L 454.500 264.500 475.250 244.009 C 494.530 224.970, 496.451 223, 495.741 223 C 495.598 223, 486.261 232.338, 474.991 243.750 M 127.828 227.750 C 167.609 227.895, 232.409 227.895, 271.828 227.750 C 311.248 227.605, 278.700 227.487, 199.500 227.487 C 120.300 227.487, 88.048 227.605, 127.828 227.750 M 390.995 327.750 L 349.500 369.500 391.250 328.005 C 430.055 289.436, 433.449 286, 432.745 286 C 432.605 286, 413.818 304.788, 390.995 327.750 M 292.469 312.250 L 286.500 318.500 292.750 312.531 C 298.556 306.987, 299.458 306, 298.719 306 C 298.564 306, 295.751 308.813, 292.469 312.250 M 325.500 346 C 338.141 358.650, 348.709 369, 348.984 369 C 349.259 369, 339.141 358.650, 326.500 346 C 313.859 333.350, 303.291 323, 303.016 323 C 302.741 323, 312.859 333.350, 325.500 346 M 297 337.260 C 297 337.402, 305.887 346.290, 316.750 357.010 L 336.500 376.500 317.010 356.750 C 298.901 338.400, 297 336.548, 297 337.260 M 367.988 370.750 L 352.500 386.500 368.250 371.012 C 382.882 356.624, 384.452 355, 383.738 355 C 383.594 355, 376.506 362.087, 367.988 370.750 M 285 362.599 C 285 363.112, 290.512 368.924, 297.250 375.516 L 309.500 387.500 297.500 375.034 C 290.900 368.177, 285.387 362.365, 285.250 362.117 C 285.113 361.869, 285 362.086, 285 362.599 M 93.500 369.737 C 193.418 370.423, 268 370.429, 268 369.750 C 268 369.337, 220.188 369.107, 161.750 369.238 C 103.313 369.369, 72.600 369.593, 93.500 369.737 M 279.468 379.052 C 279.013 379.788, 279.098 380.058, 279.672 379.703 C 280.875 378.959, 293.334 391.333, 292.361 392.305 C 291.979 392.687, 292.192 393, 292.833 393 C 295.050 393, 293.973 391.420, 287.122 384.621 C 282.300 379.836, 280.012 378.172, 279.468 379.052 M 85.822 433.750 C 102.499 433.904, 129.499 433.903, 145.822 433.749 C 162.145 433.595, 148.500 433.469, 115.500 433.469 C 82.500 433.469, 69.145 433.596, 85.822 433.750 M 242.250 433.750 C 260.813 433.902, 291.188 433.902, 309.750 433.750 C 328.313 433.597, 313.125 433.472, 276 433.472 C 238.875 433.472, 223.688 433.597, 242.250 433.750 M 19 484.313 C 19 484.485, 20.462 485.948, 22.250 487.563 L 25.500 490.500 22.563 487.250 C 19.825 484.221, 19 483.540, 19 484.313" stroke="none" fill="#050505" fill-rule="evenodd"/><path d="M 225.370 65 C 225.370 70.775, 225.535 73.138, 225.737 70.250 C 225.939 67.362, 225.939 62.638, 225.737 59.750 C 225.535 56.862, 225.370 59.225, 225.370 65 M 30.490 279.500 C 30.490 386.750, 30.607 430.477, 30.750 376.670 C 30.893 322.864, 30.893 235.114, 30.750 181.670 C 30.607 128.227, 30.490 172.250, 30.490 279.500 M 355.487 248.250 L 341.500 262.500 355.750 248.513 C 363.587 240.821, 370 234.408, 370 234.263 C 370 233.547, 368.480 235.012, 355.487 248.250 M 323 280.500 C 320.571 282.975, 318.809 285, 319.084 285 C 319.359 285, 321.571 282.975, 324 280.500 C 326.429 278.025, 328.191 276, 327.916 276 C 327.641 276, 325.429 278.025, 323 280.500 M 176.462 306.750 L 296.424 307.008 290.962 312.754 L 285.500 318.500 291.250 313.034 C 294.413 310.028, 297 307.215, 297 306.784 C 297 306.353, 242.888 306.111, 176.750 306.246 L 56.500 306.492 176.462 306.750 M 110.173 354.750 C 139.694 354.897, 188.294 354.897, 218.173 354.750 C 248.053 354.603, 223.900 354.482, 164.500 354.482 C 105.100 354.482, 80.653 354.603, 110.173 354.750" stroke="none" fill="#f8efe9" fill-rule="evenodd"/></svg>